<svg height="512pt" viewBox="0 0 512 512" width="512pt" xmlns="http://www.w3.org/2000/svg" xmlns:xlink="http://www.w3.org/1999/xlink"><linearGradient id="a" gradientUnits="userSpaceOnUse" x1="0" x2="512" y1="256" y2="256"><stop offset="0" stop-color="#00f38d"/><stop offset="1" stop-color="#009eff"/></linearGradient><path d="m512 256c0 141.386719-114.613281 256-256 256s-256-114.613281-256-256 114.613281-256 256-256 256 114.613281 256 256zm0 0" fill="url(#a)"/><g fill="#fff"><path d="m166.585938 222.445312c0 33.496094 27.25 60.746094 60.742187 60.746094 33.496094 0 60.746094-27.25 60.746094-60.746094 0-33.492187-27.25-60.742187-60.746094-60.742187-33.492187 0-60.742187 27.25-60.742187 60.742187zm93.488281 0c0 18.058594-14.6875 32.746094-32.746094 32.746094-18.054687 0-32.742187-14.6875-32.742187-32.746094 0-18.054687 14.6875-32.742187 32.742187-32.742187 18.058594 0 32.746094 14.6875 32.746094 32.742187zm0 0"/><path d="m413.804688 349.121094c-.449219-.582032-1.996094-2.5625-2.980469-3.6875-26.378907-30.105469-53.890625-45.367188-81.769531-45.367188-27.878907 0-55.394532 15.261719-81.777344 45.375-.976563 1.117188-2.519532 3.097656-2.96875 3.679688l-6.640625 8.570312 6.636719 8.570313c.449218.582031 1.996093 2.570312 2.976562 3.6875 26.378906 30.105469 53.890625 45.371093 81.773438 45.371093 27.882812 0 55.394531-15.265624 81.765624-45.363281.988282-1.125 2.535157-3.113281 2.988282-3.699219l6.628906-8.570312zm-84.75 38.199218c-17.6875 0-36.175782-9.957031-55.039063-29.625 11.359375-11.84375 22.582031-20.164062 33.578125-24.910156-2.117188 3.660156-3.332031 7.910156-3.332031 12.441406 0 13.769532 11.160156 24.929688 24.929687 24.929688 13.769532 0 24.929688-11.160156 24.929688-24.929688 0-4.46875-1.183594-8.664062-3.246094-12.292968 10.882812 4.773437 21.984375 13.042968 33.21875 24.757812-18.859375 19.671875-37.347656 29.628906-55.039062 29.628906zm0 0"/><path d="m124.492188 225.980469v-3.535157c0-56.703124 46.132812-102.835937 102.835937-102.835937 56.707031 0 102.839844 46.132813 102.839844 102.835937v3.535157c0 16.703125-5.972657 34.378906-15.140625 51.679687 4.65625-.65625 9.332031-.988281 14.027344-.988281 4.566406 0 9.117187.3125 13.648437.933594 8.234375-18.332031 12.394531-35.578125 12.394531-51.625v-3.535157c0-70.449218-57.316406-127.765624-127.769531-127.765624-70.449219 0-127.765625 57.316406-127.765625 127.765624v3.535157c0 35.628906 20.425781 77.148437 60.714844 123.40625 29.207031 33.53125 58.007812 56.914062 59.21875 57.890625l7.832031 6.328125 7.835937-6.328125c.441407-.355469 4.5625-3.699219 11.03125-9.429688-5.566406-4.726562-12.40625-10.664062-18.867187-16.636718-25.257813-22.136719-102.835937-95.023438-102.835937-155.230469zm0 0"/></g></svg>